<svg width="303" height="245" viewBox="0 0 303 245" fill="none" xmlns="http://www.w3.org/2000/svg">
  <path d="M293.498 244.649H10.1088C7.58862 244.649 5.1717 243.633 3.38969 241.826C1.60769 240.018 0.606567 237.567 0.606567 235.01C103.335 222.9 204.133 222.9 303 235.01C303 237.567 301.999 240.018 300.217 241.826C298.435 243.633 296.018 244.649 293.498 244.649Z" fill="#100F1C"/>
  <path d="M303 235.577L0.606567 235.01L35.6529 175.195L35.8206 174.911V43.0843C35.8205 41.4842 36.1311 39.8997 36.7347 38.4214C37.3383 36.9431 38.2231 35.5999 39.3385 34.4684C40.4539 33.337 41.7782 32.4395 43.2356 31.8272C44.693 31.215 46.255 30.8999 47.8325 30.9H254.097C255.675 30.8999 257.237 31.215 258.694 31.8272C260.152 32.4395 261.476 33.337 262.591 34.4684C263.707 35.5999 264.591 36.9431 265.195 38.4214C265.799 39.8997 266.109 41.4842 266.109 43.0843V175.818L303 235.577Z" fill="#5B5971"/>
  <path d="M47.5586 39.4047C46.5213 39.4058 45.5267 39.8244 44.7932 40.5684C44.0597 41.3124 43.6471 42.3212 43.6459 43.3735V163.572C43.6471 164.624 44.0597 165.633 44.7933 166.377C45.5268 167.121 46.5213 167.539 47.5586 167.541H256.048C257.085 167.539 258.08 167.121 258.813 166.377C259.547 165.633 259.959 164.624 259.961 163.572V43.3735C259.959 42.3213 259.547 41.3125 258.813 40.5685C258.08 39.8244 257.085 39.4059 256.048 39.4047H47.5586Z" fill="white"/>
  <path d="M48.4322 183.416C48.1117 183.416 47.798 183.51 47.5281 183.685C47.2581 183.861 47.0433 184.111 46.9088 184.406L36.1099 208.219C35.9923 208.478 35.9409 208.763 35.9604 209.047C35.9798 209.332 36.0695 209.607 36.2212 209.847C36.3729 210.087 36.5817 210.285 36.8285 210.422C37.0752 210.559 37.3519 210.631 37.6331 210.631H264.728C265.013 210.631 265.294 210.556 265.544 210.415C265.794 210.274 266.004 210.07 266.154 209.824C266.304 209.577 266.39 209.296 266.403 209.006C266.415 208.716 266.355 208.428 266.227 208.169L254.489 184.356C254.35 184.073 254.137 183.835 253.872 183.669C253.607 183.502 253.301 183.415 252.99 183.416H48.4322Z" fill="#2F2E41"/>
  <path d="M150.965 37.4203C152.354 37.4203 153.48 36.278 153.48 34.8689C153.48 33.4598 152.354 32.3175 150.965 32.3175C149.576 32.3175 148.45 33.4598 148.45 34.8689C148.45 36.278 149.576 37.4203 150.965 37.4203Z" fill="white"/>
  <path d="M128.643 215.166C128.275 215.167 127.916 215.29 127.624 215.518C127.331 215.745 127.121 216.064 127.024 216.425L124.316 226.63C124.249 226.882 124.24 227.147 124.29 227.403C124.34 227.659 124.447 227.9 124.604 228.107C124.76 228.315 124.962 228.483 125.192 228.598C125.423 228.714 125.677 228.774 125.935 228.774H177.45C177.717 228.774 177.98 228.709 178.218 228.585C178.456 228.46 178.66 228.28 178.815 228.059C178.97 227.838 179.071 227.583 179.109 227.315C179.147 227.046 179.121 226.773 179.034 226.516L175.551 216.311C175.437 215.977 175.223 215.687 174.939 215.482C174.655 215.277 174.315 215.167 173.967 215.166H128.643Z" fill="#2F2E41"/>
  <path d="M266.109 172.927V175.195H35.6529L35.8263 174.911V172.927H266.109Z" fill="#2F2E41"/>
  <path d="M259.681 79.3763C281.29 79.3763 298.808 61.6073 298.808 39.6881C298.808 17.769 281.29 0 259.681 0C238.072 0 220.554 17.769 220.554 39.6881C220.554 61.6073 238.072 79.3763 259.681 79.3763Z" fill="#00BFA6"/>
  <path d="M276.195 58.3799H243.776C243.183 58.3793 242.615 58.1401 242.196 57.7149C241.777 57.2898 241.541 56.7133 241.54 56.112V36.2679C241.541 35.6666 241.777 35.0901 242.196 34.665C242.615 34.2398 243.183 34.0006 243.776 34H276.195C276.788 34.0006 277.356 34.2398 277.776 34.665C278.195 35.0901 278.43 35.6666 278.431 36.2679V56.1119C278.431 56.7132 278.195 57.2898 277.776 57.7149C277.356 58.1401 276.788 58.3793 276.195 58.3799ZM243.776 36.2679V56.112H276.197L276.195 36.2679L243.776 36.2679Z" fill="white"/>
  <path d="M269.742 34.8688H249.62V25.7972C249.62 19.2267 253.851 14.4578 259.681 14.4578C265.511 14.4578 269.742 19.2267 269.742 25.7972L269.742 34.8688ZM251.856 32.6009H267.506V25.7972C267.506 20.4561 264.289 16.7257 259.681 16.7257C255.074 16.7257 251.856 20.4561 251.856 25.7972L251.856 32.6009Z" fill="white"/>
  <path d="M269.742 34.8688H249.62V25.7972C249.62 19.2267 253.851 14.4578 259.681 14.4578C265.511 14.4578 269.742 19.2267 269.742 25.7972L269.742 34.8688ZM251.856 32.6009H267.506V25.7972C267.506 20.4561 264.289 16.7257 259.681 16.7257C255.074 16.7257 251.856 20.4561 251.856 25.7972L251.856 32.6009Z" fill="white"/>
  <path d="M259.681 46.4918C260.916 46.4918 261.917 45.4765 261.917 44.2239C261.917 42.9714 260.916 41.9561 259.681 41.9561C258.446 41.9561 257.445 42.9714 257.445 44.2239C257.445 45.4765 258.446 46.4918 259.681 46.4918Z" fill="white"/>
  <path d="M232.367 126.771H71.2392C70.4481 126.77 69.6897 126.45 69.1303 125.883C68.571 125.316 68.2563 124.546 68.2554 123.744V83.2013C68.2563 82.3989 68.571 81.6296 69.1303 81.0622C69.6897 80.4948 70.4481 80.1756 71.2392 80.1747H232.367C233.158 80.1756 233.917 80.4948 234.476 81.0622C235.036 81.6296 235.35 82.3989 235.351 83.2013V123.744C235.35 124.546 235.036 125.316 234.476 125.883C233.917 126.45 233.158 126.77 232.367 126.771V126.771ZM71.2392 81.3854C70.7645 81.3859 70.3095 81.5774 69.9738 81.9178C69.6382 82.2583 69.4494 82.7199 69.4489 83.2014V123.744C69.4494 124.225 69.6382 124.687 69.9738 125.027C70.3095 125.368 70.7645 125.559 71.2392 125.56H232.367C232.842 125.559 233.297 125.368 233.633 125.027C233.968 124.687 234.157 124.225 234.158 123.744V83.2013C234.157 82.7199 233.968 82.2583 233.633 81.9178C233.297 81.5774 232.842 81.3859 232.367 81.3853L71.2392 81.3854Z" fill="#E6E6E6"/>
  <path d="M96.2753 114.246C102.988 114.246 108.43 108.726 108.43 101.917C108.43 95.1078 102.988 89.5879 96.2753 89.5879C89.5624 89.5879 84.1206 95.1078 84.1206 101.917C84.1206 108.726 89.5624 114.246 96.2753 114.246Z" fill="#E6E6E6"/>
  <path d="M124.347 93.6976C124.08 93.6972 123.817 93.75 123.57 93.8531C123.324 93.9562 123.101 94.1075 122.912 94.2983C122.724 94.4892 122.574 94.7159 122.472 94.9654C122.37 95.2149 122.318 95.4823 122.318 95.7525C122.318 96.0226 122.37 96.2901 122.472 96.5396C122.574 96.7891 122.724 97.0158 122.912 97.2066C123.101 97.3975 123.324 97.5487 123.57 97.6518C123.817 97.7549 124.08 97.8077 124.347 97.8073H219.847C220.384 97.8073 220.9 97.5908 221.28 97.2054C221.66 96.8201 221.873 96.2974 221.873 95.7525C221.873 95.2075 221.66 94.6848 221.28 94.2995C220.9 93.9141 220.384 93.6976 219.847 93.6976H124.347Z" fill="#E6E6E6"/>
  <path d="M124.347 106.027C123.809 106.027 123.294 106.243 122.914 106.628C122.534 107.014 122.321 107.536 122.321 108.081C122.321 108.626 122.534 109.149 122.914 109.534C123.294 109.92 123.809 110.136 124.347 110.136H165.441C165.978 110.136 166.493 109.92 166.873 109.534C167.253 109.149 167.467 108.626 167.467 108.081C167.467 107.536 167.253 107.014 166.873 106.628C166.493 106.243 165.978 106.027 165.441 106.027H124.347Z" fill="#E6E6E6"/>
  </svg>
  