<svg width="22" height="21" viewBox="0 0 22 21" fill="none" xmlns="http://www.w3.org/2000/svg">
  <path opacity="0.2" d="M7.19837 20.6203C6.72231 20.5991 6.25585 20.4804 5.82834 20.2719C5.40083 20.0633 5.02153 19.7693 4.71433 19.4084C4.40712 19.0474 4.17869 18.6274 4.04337 18.1747C3.90804 17.7221 3.86878 17.2465 3.92805 16.7781L4.17548 14.8483C4.22272 14.4782 4.1785 14.1022 4.04665 13.7527C3.9148 13.4032 3.69925 13.0907 3.41854 12.8419L1.95541 11.5467C1.47626 11.1227 1.12641 10.5743 0.945476 9.96358C0.764544 9.35286 0.759755 8.70415 0.931587 8.09085C1.10342 7.47755 1.44503 6.92413 1.91782 6.49317C2.39061 6.06221 2.97568 5.77093 3.60688 5.65225L5.53579 5.28929C5.90555 5.21978 6.25274 5.06226 6.5474 4.8303C6.84207 4.59834 7.07539 4.29887 7.22728 3.95773L8.01899 2.1765C8.27823 1.59422 8.6967 1.0954 9.22711 0.736391C9.75752 0.377386 10.3787 0.172522 11.0205 0.144956C11.6623 0.117391 12.2991 0.268228 12.8588 0.580407C13.4186 0.892587 13.8791 1.35366 14.1882 1.91153L15.132 3.61666C15.3131 3.94404 15.5718 4.22287 15.8859 4.42908C16.1999 4.63529 16.56 4.7627 16.9349 4.8003L18.8876 4.99575C19.5268 5.0598 20.1352 5.29978 20.6439 5.68852C21.1526 6.07727 21.5413 6.5993 21.7662 7.19554C21.991 7.79178 22.043 8.43844 21.9162 9.06241C21.7894 9.68637 21.4889 10.2627 21.0486 10.7263L19.7038 12.1428C19.4456 12.4142 19.258 12.7438 19.1573 13.1032C19.0565 13.4625 19.0457 13.8407 19.1256 14.2052L19.5405 16.1073C19.6763 16.7292 19.6338 17.3764 19.4177 17.9756C19.2017 18.5749 18.8207 19.1023 18.318 19.4983C17.8152 19.8943 17.2106 20.143 16.5726 20.2164C15.9346 20.2898 15.2886 20.1849 14.7076 19.9136L12.9318 19.0846C12.5914 18.9248 12.2168 18.8497 11.8404 18.8657C11.4641 18.8817 11.0973 18.9884 10.772 19.1765L9.07522 20.1554C8.50723 20.4847 7.85595 20.646 7.19837 20.6203Z" fill="black"/>
  </svg>
  